<svg width="36" height="34" viewBox="0 0 36 34" fill="none" xmlns="http://www.w3.org/2000/svg">
<path d="M34 14.973V2.97297C34 2.71492 33.8989 2.46745 33.7188 2.28498C33.5388 2.10251 33.2946 2 33.04 2H2.96C2.70539 2 2.46121 2.10251 2.28118 2.28498C2.10114 2.46745 2 2.71492 2 2.97297V14.973M34 14.973H2M34 14.973L32.736 19.1632C32.5359 19.8275 32.1307 20.4092 31.5799 20.8225C31.0292 21.2359 30.3621 21.4592 29.6768 21.4595H27.6M2 14.973L3.264 19.1632C3.46411 19.8275 3.86935 20.4092 4.42007 20.8225C4.97079 21.2359 5.6379 21.4592 6.3232 21.4595H8.4M27.6 8.48649H29.2M14 20.6486C14 20.6486 14 32 8.4 32M22 20.6486C22 20.6486 22 32 27.6 32M18 20.6486V32" stroke="#00A59B" stroke-width="3" stroke-linecap="round" stroke-linejoin="round"/>
</svg>
