<svg width="39" height="40" viewBox="0 0 39 40" fill="none" xmlns="http://www.w3.org/2000/svg">
<path d="M36.0007 6.66699H25.334V9.33366H36.0007V37.3337H25.334V40.0003H38.6673V9.33366C38.6673 8.62641 38.3864 7.94814 37.8863 7.44804C37.3862 6.94794 36.7079 6.66699 36.0007 6.66699Z" fill="#00A59B"/>
<path d="M21.1733 0H2.82667C2.07699 0 1.35801 0.297809 0.827911 0.827911C0.297809 1.35801 0 2.07699 0 2.82667V40H24V2.82667C24 2.07699 23.7022 1.35801 23.1721 0.827911C22.642 0.297809 21.923 0 21.1733 0ZM21.3333 37.3333H17.3333V33.3333H6.66667V37.3333H2.66667V2.82667C2.66667 2.80566 2.6708 2.78485 2.67885 2.76544C2.68689 2.74603 2.69867 2.72839 2.71353 2.71353C2.72839 2.69867 2.74603 2.68689 2.76544 2.67885C2.78485 2.6708 2.80566 2.66667 2.82667 2.66667H21.1733C21.1943 2.66667 21.2152 2.6708 21.2346 2.67885C21.254 2.68689 21.2716 2.69867 21.2865 2.71353C21.3013 2.72839 21.3131 2.74603 21.3212 2.76544C21.3292 2.78485 21.3333 2.80566 21.3333 2.82667V37.3333Z" fill="#00A59B"/>
<path d="M5.33398 6.66699H8.00065V9.33366H5.33398V6.66699Z" fill="#00A59B"/>
<path d="M10.666 6.66699H13.3327V9.33366H10.666V6.66699Z" fill="#00A59B"/>
<path d="M16 6.66699H18.6667V9.33366H16V6.66699Z" fill="#00A59B"/>
<path d="M5.33398 13.333H8.00065V15.9997H5.33398V13.333Z" fill="#00A59B"/>
<path d="M10.666 13.333H13.3327V15.9997H10.666V13.333Z" fill="#00A59B"/>
<path d="M16 13.333H18.6667V15.9997H16V13.333Z" fill="#00A59B"/>
<path d="M5.33398 20H8.00065V22.6667H5.33398V20Z" fill="#00A59B"/>
<path d="M10.666 20H13.3327V22.6667H10.666V20Z" fill="#00A59B"/>
<path d="M16 20H18.6667V22.6667H16V20Z" fill="#00A59B"/>
<path d="M5.33398 26.667H8.00065V29.3337H5.33398V26.667Z" fill="#00A59B"/>
<path d="M10.666 26.667H13.3327V29.3337H10.666V26.667Z" fill="#00A59B"/>
<path d="M16 26.667H18.6667V29.3337H16V26.667Z" fill="#00A59B"/>
<path d="M25.334 13.333H28.0007V15.9997H25.334V13.333Z" fill="#00A59B"/>
<path d="M30.666 13.333H33.3327V15.9997H30.666V13.333Z" fill="#00A59B"/>
<path d="M25.334 20H28.0007V22.6667H25.334V20Z" fill="#00A59B"/>
<path d="M30.666 20H33.3327V22.6667H30.666V20Z" fill="#00A59B"/>
<path d="M25.334 26.667H28.0007V29.3337H25.334V26.667Z" fill="#00A59B"/>
<path d="M30.666 26.667H33.3327V29.3337H30.666V26.667Z" fill="#00A59B"/>
</svg>
