<svg width="47" height="36" viewBox="0 0 47 36" fill="none" xmlns="http://www.w3.org/2000/svg">
<path d="M30.8168 19.8736C30.8168 21.8027 30.0505 23.6528 28.6864 25.0168C27.3223 26.3809 25.4722 27.1472 23.5432 27.1472C21.6141 27.1472 19.764 26.3809 18.3999 25.0168C17.0359 23.6528 16.2695 21.8027 16.2695 19.8736C16.2695 17.9445 17.0359 16.0944 18.3999 14.7304C19.764 13.3663 21.6141 12.6 23.5432 12.6C25.4722 12.6 27.3223 13.3663 28.6864 14.7304C30.0505 16.0944 30.8168 17.9445 30.8168 19.8736Z" fill="#F0FAF9"/>
<path d="M6.08453 6.78179C4.54126 6.78179 3.0612 7.39485 1.96994 8.48611C0.878686 9.57736 0.265625 11.0574 0.265625 12.6007L0.265625 30.0574C0.265625 31.6007 0.878686 33.0807 1.96994 34.172C3.0612 35.2632 4.54126 35.8763 6.08453 35.8763H40.9979C42.5412 35.8763 44.0213 35.2632 45.1125 34.172C46.2038 33.0807 46.8168 31.6007 46.8168 30.0574V12.6007C46.8168 11.0574 46.2038 9.57736 45.1125 8.48611C44.0213 7.39485 42.5412 6.78179 40.9979 6.78179H37.5881C36.0449 6.78146 34.5651 6.16819 33.4741 5.07685L31.0651 2.66783C29.9741 1.5765 28.4942 0.96322 26.9511 0.962891H20.1314C18.5882 0.96322 17.1084 1.5765 16.0174 2.66783L13.6084 5.07685C12.5174 6.16819 11.0375 6.78146 9.4944 6.78179H6.08453ZM7.53925 12.6007C7.15343 12.6007 6.78342 12.4474 6.51061 12.1746C6.23779 11.9018 6.08453 11.5318 6.08453 11.146C6.08453 10.7602 6.23779 10.3901 6.51061 10.1173C6.78342 9.84451 7.15343 9.69124 7.53925 9.69124C7.92507 9.69124 8.29508 9.84451 8.5679 10.1173C8.84071 10.3901 8.99398 10.7602 8.99398 11.146C8.99398 11.5318 8.84071 11.9018 8.5679 12.1746C8.29508 12.4474 7.92507 12.6007 7.53925 12.6007ZM33.7243 19.8743C33.7243 22.575 32.6515 25.1651 30.7418 27.0748C28.8321 28.9845 26.242 30.0574 23.5412 30.0574C20.8405 30.0574 18.2504 28.9845 16.3407 27.0748C14.431 25.1651 13.3582 22.575 13.3582 19.8743C13.3582 17.1736 14.431 14.5835 16.3407 12.6738C18.2504 10.7641 20.8405 9.69124 23.5412 9.69124C26.242 9.69124 28.8321 10.7641 30.7418 12.6738C32.6515 14.5835 33.7243 17.1736 33.7243 19.8743Z" fill="#F0FAF9"/>
</svg>
