<svg width="25" height="26" viewBox="0 0 25 26" fill="none" xmlns="http://www.w3.org/2000/svg">
<path d="M1.33333 1.44466V0.111328H0V1.44466H1.33333ZM13.724 15.7207C13.9755 15.9635 14.3123 16.0979 14.6619 16.0949C15.0115 16.0919 15.3459 15.9516 15.5931 15.7044C15.8403 15.4572 15.9805 15.1228 15.9836 14.7732C15.9866 14.4236 15.8522 14.0868 15.6093 13.8353L13.724 15.7207ZM2.66667 12.1113V1.44466H0V12.1113H2.66667ZM1.33333 2.77799H12V0.111328H1.33333V2.77799ZM0.390667 2.38733L13.724 15.7207L15.6093 13.8353L2.276 0.501995L0.390667 2.38733Z" fill="#00A59B"/>
<path d="M2.66699 17.4445C2.66699 19.9378 2.66699 21.1832 3.20299 22.1112C3.55405 22.7192 4.05897 23.2241 4.66699 23.5752C5.59499 24.1112 6.84033 24.1112 9.33366 24.1112H16.0003C19.771 24.1112 21.6577 24.1112 22.8283 22.9392C24.0003 21.7685 24.0003 19.8818 24.0003 16.1112V9.4445C24.0003 6.95117 24.0003 5.70583 23.4643 4.77783C23.1133 4.16981 22.6084 3.66489 22.0003 3.31383C21.0723 2.77783 19.827 2.77783 17.3337 2.77783" stroke="#00A59B" stroke-width="2" stroke-linecap="round"/>
</svg>
