<svg width="47" height="28" viewBox="0 0 47 28" fill="none" xmlns="http://www.w3.org/2000/svg">
<path d="M0 0V23.6923H2.13636C2.13636 24.8348 2.58652 25.9305 3.38782 26.7383C4.18911 27.5462 5.27589 28 6.40909 28C7.54229 28 8.62907 27.5462 9.43037 26.7383C10.2317 25.9305 10.6818 24.8348 10.6818 23.6923H36.3182C36.3182 24.8348 36.7683 25.9305 37.5696 26.7383C38.3709 27.5462 39.4577 28 40.5909 28C41.7241 28 42.8109 27.5462 43.6122 26.7383C44.4135 25.9305 44.8636 24.8348 44.8636 23.6923H47V0H0ZM42.7273 19.3846H38.4545V6.46154H34.1818V19.3846H29.9091V6.46154H25.6364V19.3846H21.3636V6.46154H17.0909V19.3846H12.8182V6.46154H8.54545V19.3846H4.27273V4.30769H42.7273V19.3846Z" fill="#00A59B"/>
</svg>
