<svg width="30" height="28" viewBox="0 0 30 28" fill="none" xmlns="http://www.w3.org/2000/svg">
<path d="M13.4259 0.882528C13.5863 0.614002 13.8162 0.391199 14.0925 0.236345C14.3688 0.0814914 14.6819 0 15.0005 0C15.3192 0 15.6323 0.0814914 15.9086 0.236345C16.1849 0.391199 16.4148 0.614002 16.5752 0.882528L20.6504 7.70517L28.5645 9.37741C28.8758 9.44338 29.1639 9.58779 29.4002 9.79623C29.6364 10.0047 29.8125 10.2699 29.9109 10.5654C30.0093 10.8609 30.0265 11.1764 29.9609 11.4804C29.8953 11.7844 29.7491 12.0664 29.537 12.2981L24.1423 18.1865L24.9588 26.043C24.991 26.3523 24.9395 26.6645 24.8093 26.9483C24.6791 27.2322 24.4748 27.4778 24.2169 27.6605C23.9589 27.8433 23.6563 27.9569 23.3393 27.9899C23.0223 28.023 22.7019 27.9743 22.4102 27.8489L15.0005 24.6636L7.5909 27.8489C7.29918 27.9743 6.97881 28.023 6.66178 27.9899C6.34476 27.9569 6.04217 27.8433 5.78423 27.6605C5.52629 27.4778 5.32202 27.2322 5.19183 26.9483C5.06164 26.6645 5.01007 26.3523 5.04228 26.043L5.85877 18.1865L0.464109 12.2996C0.251571 12.0678 0.10508 11.7858 0.0392629 11.4815C-0.0265545 11.1773 -0.00939614 10.8616 0.0890248 10.5658C0.187446 10.2701 0.363686 10.0047 0.600151 9.79618C0.836616 9.58764 1.12503 9.44324 1.43661 9.37741L9.35073 7.70517L13.4259 0.882528Z" fill="#00A59B"/>
</svg>
