<svg width="26" height="26" viewBox="0 0 26 26" fill="none" xmlns="http://www.w3.org/2000/svg">
<path d="M26 13C26 5.82034 20.1797 0 13 0C5.82034 0 0 5.82034 0 13C0 19.4886 4.75394 24.8669 10.9688 25.8421V16.7578H7.66797V13H10.9688V10.1359C10.9688 6.87781 12.9096 5.07812 15.8791 5.07812C17.3014 5.07812 18.7891 5.33203 18.7891 5.33203V8.53125H17.1498C15.5349 8.53125 15.0312 9.53337 15.0312 10.5615V13H18.6367L18.0604 16.7578H15.0312V25.8421C21.2461 24.8669 26 19.4887 26 13Z" fill="#1877F2"/>
<path d="M18.0564 16.7578L18.6328 13H15.0273V10.5615C15.0273 9.53327 15.531 8.53125 17.1459 8.53125H18.7852V5.33203C18.7852 5.33203 17.2975 5.07812 15.8751 5.07812C12.9057 5.07812 10.9648 6.87781 10.9648 10.1359V13H7.66406V16.7578H10.9648V25.8421C11.6368 25.9474 12.3159 26.0002 12.9961 26C13.6763 26.0002 14.3554 25.9474 15.0273 25.8421V16.7578H18.0564Z" fill="white"/>
</svg>
