<svg width="43" height="36" viewBox="0 0 43 36" fill="none" xmlns="http://www.w3.org/2000/svg">
<path d="M35.8333 34.2H30.4583V30.6H35.8333V34.2ZM35.8333 27H30.4583V23.4H35.8333V27ZM35.8333 19.8H30.4583V16.2H35.8333V19.8ZM43 10.44C42.2833 4.5 37.2667 0 31.3542 0C28.3083 0 25.2625 1.26 23.1125 3.42C21.8583 4.68 20.9625 5.94 20.425 7.56L27.95 12.6H39.4167V36H43V10.44ZM23.8292 9C24.9042 5.76 27.95 3.6 31.3542 3.6C34.7583 3.6 37.8042 5.76 38.8792 9H23.8292ZM13.4375 7.2L0 16.2V36H26.875V16.2L13.4375 7.2ZM23.2917 32.4H17.9167V21.6H8.95833V32.4H3.58333V18L13.4375 11.7L23.2917 18V32.4Z" fill="#00A59B"/>
</svg>
