<svg width="75" height="28" viewBox="0 0 75 28" fill="none" xmlns="http://www.w3.org/2000/svg">
<path d="M37.5 2.28978C18.35 2.28978 2.82812 7.56 2.82812 14.0062C2.82812 20.4524 18.35 25.7196 37.5 25.7196C56.6469 25.7196 72.1687 20.4524 72.1687 14.0062C72.1687 7.55689 56.6469 2.28978 37.5 2.28978ZM19.6938 21.7031C17.6437 21.7187 15.8406 20.4587 15.6312 18.2778C15.5123 17.1414 15.8417 16.0034 16.55 15.1044C17.1594 14.3142 18.1906 13.6578 19.0625 13.496C19.3438 13.4431 19.7281 13.4773 19.8875 13.664C20.1344 13.9533 20.0625 14.2676 19.8156 14.392C19.15 14.7311 18.3469 15.3098 17.95 16.1031C17.7682 16.4395 17.682 16.8189 17.7008 17.2005C17.7195 17.582 17.8424 17.9513 18.0562 18.2684C18.8781 19.5036 21.1719 19.5378 23.3031 17.5684C23.8312 17.0831 24.3031 16.6227 24.7812 16.0751C25.7188 15.0049 26.0312 14.6129 27.2812 12.8893C27.2969 12.8707 27.3 12.8458 27.2938 12.8333C27.2844 12.8116 27.2656 12.8022 27.2312 12.8022C26.3969 12.824 25.6687 13.0729 24.9656 13.5956C24.7625 13.7449 24.4688 13.7231 24.3406 13.5302C24.1969 13.3124 24.3 13.0231 24.5344 12.8613C25.6687 12.0742 26.9094 11.9342 28.1781 11.7196C28.1781 11.7196 28.2656 11.7258 28.3375 11.6262C28.8594 10.9636 29.25 10.3662 29.8062 9.69422C30.3625 9.00978 31.0875 8.38756 31.6375 7.91467C32.4062 7.25511 32.9 7.03422 33.4 6.76356C33.5344 6.69511 33.3844 6.61111 33.3438 6.61111C30.5438 6.08844 27.6344 5.41022 24.8531 6.43689C22.9281 7.15245 22.0813 8.67067 22.4875 9.688C22.7781 10.4067 23.7281 10.528 24.6219 10.0924C25.3991 9.70871 26.0585 9.1242 26.5312 8.4C26.8031 7.98311 27.375 8.28178 27.0656 9.00667C26.2531 10.9076 24.7 12.4196 22.8062 12.4849C21.1938 12.5347 20.1531 11.3556 20.1562 9.89956C20.1625 7.02489 23.375 5.13333 26.75 4.85333C30.8156 4.51733 34.6656 5.59689 38.7031 6.08222C41.7938 6.45556 44.7594 6.46489 47.8656 5.75244C48.2344 5.67467 48.4906 5.908 48.4688 6.27511C48.4375 6.81022 48.0219 7.32356 47 7.88044C45.8344 8.51511 44.6156 8.708 43.3438 8.72045C40.2687 8.74533 37.4031 7.55067 34.4375 6.90978C34.4438 7.03733 34.475 7.19289 34.3656 7.27378C32.725 8.48089 31.2406 9.70667 30.2469 11.424C30.2125 11.4644 30.2313 11.5018 30.2875 11.4987C31.1531 11.452 31.9281 11.4302 32.7344 11.368C32.875 11.3556 32.8812 11.3213 32.8687 11.2187C32.8246 10.9006 32.8584 10.5766 32.9672 10.2743C33.076 9.97201 33.2567 9.70041 33.4938 9.48267C34.0312 9.00667 34.7031 8.95378 35.15 9.296C35.65 9.688 35.6094 10.3942 35.3312 10.9231C35.2074 11.1554 35.0379 11.3604 34.8328 11.5261C34.6278 11.6918 34.3913 11.8147 34.1375 11.8876C34.1375 11.8876 34.0438 11.9062 34.0562 11.9933C34.075 12.1271 34.6812 12.4631 34.7344 12.5533C34.7875 12.6373 34.7594 12.7711 34.6688 12.8707C34.6327 12.9144 34.5874 12.9496 34.5361 12.9738C34.4848 12.998 34.4287 13.0106 34.3719 13.0107C34.2687 13.0107 34.2062 12.9733 34.0719 12.9018C33.7502 12.732 33.4639 12.5029 33.2281 12.2267C33.1531 12.1302 33.1125 12.1271 32.9188 12.1364C32.0469 12.1893 30.6875 12.32 29.7656 12.4351C29.5437 12.46 29.5094 12.5036 29.4656 12.5813C27.9969 14.9924 26.4281 17.5902 24.7063 19.3324C22.8563 21.1991 21.3219 21.6907 19.6938 21.7031ZM59.5312 9.98667C59.2469 10.4782 53.7531 18.8036 53.4062 19.6622C53.2969 19.936 53.2812 20.1444 53.3938 20.2969C53.6813 20.6827 54.3219 20.4556 54.7219 20.1787C55.9125 19.3636 56.7375 18.3742 57.65 17.5093C57.7031 17.4689 57.7938 17.4533 57.8531 17.5093C57.9875 17.6338 58.1844 17.7924 58.3219 17.9356C58.3341 17.9467 58.344 17.9602 58.3509 17.9752C58.3579 17.9902 58.3617 18.0064 58.3623 18.0229C58.3629 18.0394 58.3602 18.0559 58.3543 18.0713C58.3484 18.0868 58.3395 18.1009 58.3281 18.1129C57.4933 19.1575 56.546 20.1079 55.5031 20.9471C54.0344 22.0796 52.5688 22.3689 51.8406 21.644C51.5839 21.3773 51.4291 21.0294 51.4031 20.6609C51.3969 20.4836 51.3063 20.4742 51.2219 20.5551C50.3531 21.4107 48.8469 22.3564 47.4781 21.6813C46.3344 21.1213 46.0688 19.7587 46.2812 18.6138C46.2844 18.5889 46.2625 18.4271 46.1219 18.5204C45.8333 18.7293 45.5181 18.8988 45.1844 19.0244C44.8256 19.1875 44.435 19.2694 44.0406 19.264C43.757 19.2672 43.4776 19.1962 43.2302 19.0581C42.9829 18.9199 42.7763 18.7195 42.6313 18.4769C42.4468 18.1459 42.345 17.7757 42.3344 17.3973C42.3312 17.3631 42.2812 17.2978 42.2313 17.3818C41.2938 18.8036 40.4219 20.1787 39.4969 21.6222C39.4469 21.6907 39.4031 21.7342 39.3094 21.7373L37.475 21.7404C37.3625 21.7404 37.3094 21.6533 37.3688 21.5444C37.6938 20.9222 39.475 18.34 40.6812 16.1436C41.0156 15.54 40.9469 15.2289 40.7406 15.0951C40.4813 14.9271 39.9656 15.1791 39.5312 15.5089C38.3469 16.4018 37.3531 17.7956 36.8469 18.4178C36.55 18.7818 36.2687 19.3231 35.4937 20.16C34.2719 21.4822 32.65 22.2413 31.0938 21.7156C30.6827 21.5769 30.3121 21.3398 30.0146 21.0252C29.7171 20.7106 29.5017 20.328 29.3875 19.9111C29.3406 19.7493 29.25 19.7058 29.1594 19.8116C28.9094 20.1227 28.3937 20.5862 27.9625 20.8756C27.9156 20.9098 27.8 20.9782 27.7 20.9284C27.5119 20.7465 27.3518 20.5379 27.225 20.3093C27.2062 20.2679 27.2008 20.2215 27.2098 20.1769C27.2188 20.1322 27.2416 20.0915 27.275 20.0604C27.8906 19.5222 28.2281 19.2173 28.4969 18.8782C28.6969 18.6293 28.85 18.3493 29.0281 17.8982C29.4031 16.9587 30.2563 15.204 31.9594 14.2956C32.5886 13.9409 33.2802 13.7096 33.9969 13.6142C34.3094 13.5831 34.5687 13.6204 34.6625 13.8631C34.6969 13.9658 34.7844 14.1898 34.8375 14.3547C34.8719 14.4542 34.8469 14.532 34.7281 14.5756C33.7281 14.9551 32.7188 15.5431 32.025 16.4733C31.2344 17.5249 31.0219 18.7942 31.55 19.5222C31.9344 20.0511 32.5562 20.1444 33.1562 19.9547C34.0625 19.6684 34.8375 18.8253 35.2375 17.892C35.6688 16.8684 35.7375 15.6613 35.4187 14.5973C35.3687 14.4138 35.4156 14.2738 35.5344 14.1742C35.775 13.9782 36.1094 13.8258 36.2063 13.776C36.3017 13.7252 36.4126 13.7114 36.5176 13.7372C36.6227 13.7631 36.7144 13.8268 36.775 13.916C37.1063 14.4044 37.2844 15.092 37.3062 15.8044C37.325 15.9569 37.3875 15.96 37.4625 15.8822C38.0563 15.2538 38.6063 14.5818 39.2375 14.0778C39.8156 13.6204 40.5563 13.2471 41.2469 13.2627C42.1406 13.2813 42.5844 13.8849 42.5563 14.9613C42.5531 15.0982 42.65 15.0858 42.7156 14.9956C42.9227 14.6858 43.1756 14.4089 43.4656 14.1742C44.0844 13.6671 44.7156 13.44 45.375 13.4836C46.1875 13.5458 46.8375 14.2831 46.7031 15.1231C46.6707 15.3888 46.5738 15.6426 46.4208 15.8627C46.2678 16.0828 46.0633 16.2624 45.825 16.3862C45.6246 16.4925 45.3967 16.5363 45.171 16.5118C44.9453 16.4874 44.7322 16.396 44.5594 16.2493C44.4254 16.1233 44.3272 15.9643 44.2746 15.7885C44.2219 15.6126 44.2167 15.4261 44.2594 15.2476C44.275 15.1698 44.175 15.0982 44.0906 15.1853C43.2969 16.0067 43.2375 17.0707 43.7562 17.5498C44.3281 18.0787 45.1875 17.724 45.8125 17.3164C46.9562 16.5729 47.8438 15.5649 48.8719 14.7871C49.5531 14.2707 50.3312 13.8102 51.2031 13.6951C51.6821 13.6222 52.1719 13.6781 52.6219 13.8569C53.2469 14.1089 53.6406 14.6347 53.6906 15.0889C53.7031 15.2227 53.8031 15.2382 53.8875 15.12C54.3812 14.3547 57.0281 10.4004 57.2469 9.98667C57.3094 9.85911 57.3844 9.84044 57.525 9.84044H59.4188C59.5281 9.84044 59.5781 9.90267 59.5312 9.98667ZM52.2812 16.8436C52.2619 16.8822 52.2585 16.9269 52.2719 16.968C52.2812 17.0302 52.3656 17.0924 52.4469 17.1236C52.4781 17.1329 52.4938 17.1547 52.4594 17.2231C52.225 17.7209 52.0125 18.0071 51.7187 18.4396C51.4592 18.8217 51.1431 19.1626 50.7812 19.4507C50.225 19.908 49.4562 20.4058 48.8187 20.0729C48.5375 19.9267 48.4125 19.5316 48.4219 19.2142C48.4344 18.3182 48.8344 17.3973 49.575 16.492C50.475 15.3876 51.4719 14.8151 52.125 15.1293C52.8 15.4498 52.5875 16.2338 52.2812 16.8436ZM33.6906 10.9916C33.6671 10.7928 33.6924 10.5913 33.7642 10.4044C33.8361 10.2174 33.9524 10.0506 34.1031 9.91822C34.2812 9.76267 34.5188 9.72533 34.6656 9.84978C34.8281 9.98978 34.75 10.3382 34.5844 10.5778C34.4045 10.8475 34.1325 11.0432 33.8187 11.1284C33.7625 11.1409 33.7125 11.116 33.6906 10.9916ZM37.5 0C16.6875 0 0 6.21289 0 14C0 21.7404 16.8219 28 37.5 28C58.1781 28 75 21.7156 75 14C75 6.28444 58.1781 0 37.5 0ZM37.5 26.7804C17.6531 26.7804 1.5625 21.0622 1.5625 14.0062C1.5625 6.94711 17.6562 1.22889 37.5 1.22889C57.3438 1.22889 73.4312 6.94711 73.4312 14.0062C73.4312 21.0622 57.3438 26.7804 37.5 26.7804Z" fill="#00A59B"/>
</svg>
