<svg width="18" height="41" viewBox="0 0 18 41" fill="none" xmlns="http://www.w3.org/2000/svg">
<path d="M12.2005 41H6.53385C5.78241 41 5.06174 40.7021 4.53039 40.1718C3.99903 39.6415 3.70052 38.9223 3.70052 38.1724V28.2759C2.94907 28.2759 2.22841 27.978 1.69705 27.4477C1.1657 26.9174 0.867188 26.1982 0.867188 25.4483V16.9655C0.867188 15.8406 1.31495 14.7618 2.11198 13.9664C2.90901 13.171 3.99002 12.7241 5.11719 12.7241H13.6172C14.7444 12.7241 15.8254 13.171 16.6224 13.9664C17.4194 14.7618 17.8672 15.8406 17.8672 16.9655V25.4483C17.8672 26.1982 17.5687 26.9174 17.0373 27.4477C16.506 27.978 15.7853 28.2759 15.0339 28.2759V38.1724C15.0339 38.9223 14.7353 39.6415 14.204 40.1718C13.6726 40.7021 12.952 41 12.2005 41ZM5.11719 15.5517C4.92791 15.5392 4.73814 15.5672 4.56058 15.6339C4.38303 15.7005 4.22179 15.8042 4.08765 15.9381C3.95352 16.0719 3.84959 16.2328 3.78283 16.41C3.71606 16.5872 3.688 16.7766 3.70052 16.9655V25.4483H6.53385V38.1724H12.2005V25.4483H15.0339V16.9655C15.0464 16.7766 15.0183 16.5872 14.9515 16.41C14.8848 16.2328 14.7809 16.0719 14.6467 15.9381C14.5126 15.8042 14.3513 15.7005 14.1738 15.6339C13.9962 15.5672 13.8065 15.5392 13.6172 15.5517H5.11719ZM9.36719 11.3103C8.24643 11.3103 7.15084 10.9787 6.21896 10.3573C5.28708 9.73588 4.56077 8.85266 4.13187 7.81931C3.70297 6.78597 3.59075 5.6489 3.8094 4.55191C4.02805 3.45491 4.56775 2.44725 5.36025 1.65636C6.15275 0.865474 7.16245 0.326871 8.26168 0.108665C9.3609 -0.109541 10.5003 0.00245028 11.5357 0.430477C12.5712 0.858503 13.4562 1.58334 14.0788 2.51333C14.7015 3.44332 15.0339 4.53669 15.0339 5.65517C15.0339 7.15502 14.4368 8.59343 13.3741 9.65399C12.3114 10.7145 10.8701 11.3103 9.36719 11.3103ZM9.36719 2.82759C8.80681 2.82759 8.25901 2.99342 7.79307 3.30412C7.32713 3.61482 6.96398 4.05643 6.74953 4.5731C6.53508 5.08978 6.47897 5.65831 6.5883 6.20681C6.69762 6.75531 6.96747 7.25913 7.36372 7.65458C7.75997 8.05002 8.26482 8.31933 8.81443 8.42843C9.36404 8.53753 9.93373 8.48154 10.4515 8.26752C10.9692 8.05351 11.4117 7.69109 11.723 7.2261C12.0343 6.7611 12.2005 6.21442 12.2005 5.65517C12.2005 4.90525 11.902 4.18604 11.3707 3.65577C10.8393 3.12549 10.1186 2.82759 9.36719 2.82759Z" fill="#00A59B"/>
</svg>
