<svg width="29" height="27" viewBox="0 0 29 27" fill="none" xmlns="http://www.w3.org/2000/svg">
<path d="M14.5024 2.23537C16.1589 0.741548 18.3205 -0.0563812 20.5429 0.00555213C22.7653 0.0674854 24.8797 0.984577 26.4517 2.56837C28.0224 4.15039 28.9328 6.27773 28.9964 8.51429C29.06 10.7508 28.272 12.9272 26.7939 14.5972L14.4995 27L2.20802 14.5972C0.728139 12.9263 -0.0606337 10.7481 0.00364088 8.50975C0.0679154 6.27139 0.98036 4.14274 2.55365 2.56082C4.12694 0.978893 6.24169 0.0637266 8.46375 0.00320445C10.6858 -0.0573177 12.8466 0.741396 14.5024 2.23537ZM24.3988 4.63209C23.3514 3.57778 21.9433 2.96721 20.4632 2.92566C18.9831 2.8841 17.5434 3.41472 16.4393 4.40863L14.5038 6.15834L12.5669 4.41009C11.4675 3.4197 10.0348 2.88851 8.56031 2.92462C7.08586 2.96073 5.68046 3.56143 4.63011 4.60448C3.57975 5.64752 2.96336 7.05454 2.90636 8.53922C2.84936 10.0239 3.35604 11.4747 4.32329 12.5963L14.5009 22.8653L24.6786 12.5978C25.6418 11.4811 26.1486 10.0378 26.0966 8.5594C26.0447 7.08096 25.4379 5.67742 24.3988 4.63209Z" fill="#00A59B"/>
</svg>
