<svg width="34" height="34" viewBox="0 0 34 34" fill="none" xmlns="http://www.w3.org/2000/svg">
<path d="M33.0963 14.4027L33.0965 14.4029C33.2144 14.5076 33.3105 14.6344 33.3794 14.7762C33.4483 14.918 33.4885 15.0719 33.4979 15.2293C33.5072 15.3866 33.4855 15.5443 33.434 15.6932C33.3824 15.8422 33.302 15.9795 33.1973 16.0974C33.0927 16.2153 32.9659 16.3114 32.8241 16.3803C32.6823 16.4491 32.5283 16.4894 32.371 16.4987C32.0532 16.5176 31.7409 16.4095 31.5029 16.1982L30.9321 15.6903L30.0997 14.9496V16.0638V32.3C30.0997 32.6183 29.9733 32.9235 29.7483 33.1485C29.5232 33.3736 29.218 33.5 28.8998 33.5H5.10024C4.78199 33.5 4.47677 33.3736 4.25173 33.1485C4.0267 32.9235 3.90027 32.6183 3.90027 32.3V16.0638V14.9496L3.06789 15.6903L2.49715 16.1982C2.49712 16.1982 2.49709 16.1983 2.49705 16.1983C2.25899 16.4096 1.94676 16.5176 1.62903 16.4987C1.31125 16.4798 1.01399 16.3355 0.802658 16.0974L0.428734 16.4293L0.802657 16.0974C0.591322 15.8593 0.483217 15.5471 0.502121 15.2293C0.521026 14.9115 0.665392 14.6143 0.903463 14.4029L0.903711 14.4027L16.2034 0.803123L16.2036 0.802989C16.4229 0.60782 16.7064 0.5 17 0.5C17.2936 0.5 17.5771 0.60782 17.7964 0.802989L17.7966 0.803123L33.0963 14.4027ZM11.7407 30.4356L11.5092 31.1001H12.2129H21.7871H22.4908L22.2593 30.4356C21.8789 29.3439 21.1683 28.3976 20.2259 27.728C19.2835 27.0584 18.1561 26.6986 17 26.6986C15.8439 26.6986 14.7165 27.0584 13.7741 27.728C12.8317 28.3976 12.1211 29.3439 11.7407 30.4356ZM13.9501 21.2504V21.2511C13.9511 22.0594 14.2727 22.8344 14.8444 23.406C15.416 23.9776 16.1909 24.2992 16.9993 24.3003H17C17.6032 24.3003 18.1929 24.1214 18.6945 23.7863C19.196 23.4512 19.5869 22.9748 19.8178 22.4175C20.0486 21.8602 20.109 21.247 19.9913 20.6554C19.8737 20.0637 19.5832 19.5203 19.1566 19.0938C18.7301 18.6672 18.1866 18.3767 17.595 18.2591C17.0034 18.1414 16.3901 18.2018 15.8328 18.4326C15.2755 18.6635 14.7992 19.0544 14.4641 19.5559C14.1289 20.0575 13.9501 20.6472 13.9501 21.2504ZM27.1998 31.1001H27.6998V30.6001V13.0413V12.8168L27.532 12.6676L17.3322 3.60179L17 3.30655L16.6678 3.60179L6.46804 12.6676L6.30021 12.8168V13.0413V30.6001V31.1001H6.80021H8.67017H9.07658L9.15962 30.7023C9.38106 29.6414 9.81576 28.6365 10.4373 27.7487C11.0589 26.8609 11.8544 26.1087 12.7755 25.5376L13.277 25.2268L12.8881 24.7831C12.0307 23.8049 11.5556 22.55 11.5501 21.2493C11.5504 19.8043 12.1246 18.4186 13.1464 17.3968C14.1684 16.3747 15.5546 15.8006 17 15.8006C18.4454 15.8006 19.8316 16.3747 20.8537 17.3968C21.8755 18.4186 22.4496 19.8043 22.4499 21.2493C22.4444 22.55 21.9693 23.8049 21.1119 24.7831L20.7231 25.2266L21.2243 25.5376C22.1452 26.1088 22.9404 26.8611 23.5617 27.7489C24.183 28.6367 24.6174 29.6414 24.8387 30.7022L24.9217 31.1001H25.3281H27.1998ZM18.1287 0.429448L18.1288 0.42943L18.1287 0.429448Z" fill="#00A59B" stroke="#00A59B"/>
</svg>
