<svg width="50" height="40" viewBox="0 0 50 40" fill="none" xmlns="http://www.w3.org/2000/svg">
<path fill-rule="evenodd" clip-rule="evenodd" d="M26.1875 0.69003L25 0L23.8126 0.69003L1.15727 13.9001C0.621056 14.2133 0.231912 14.7256 0.0754426 15.3243C-0.0810264 15.9229 0.00799669 16.5589 0.322928 17.0922C0.637859 17.6256 1.1529 18.0127 1.75475 18.1683C2.3566 18.3239 2.99595 18.2354 3.53217 17.9221L6.2508 16.3369V40H43.7492V16.3369L46.4678 17.9221C46.7333 18.0772 47.027 18.1788 47.3319 18.2211C47.6369 18.2633 47.9473 18.2454 48.2453 18.1683C48.5433 18.0912 48.8231 17.9566 49.0688 17.7719C49.3144 17.5873 49.5211 17.3563 49.6771 17.0922C49.833 16.8281 49.9351 16.5361 49.9776 16.2327C50.0201 15.9294 50.002 15.6207 49.9246 15.3243C49.8471 15.0279 49.7117 14.7495 49.5261 14.5051C49.3404 14.2608 49.1082 14.0552 48.8427 13.9001L26.1875 0.69003ZM39.0619 13.6017L25 5.40524L10.9381 13.6017V35.3376H18.7503V21.3505H31.2497V35.3376H39.0619V13.6017ZM26.5624 26.0129V35.3376H23.4376V26.0129H26.5624Z" fill="#00A59B"/>
</svg>
