<svg width="47" height="47" viewBox="0 0 47 47" fill="none" xmlns="http://www.w3.org/2000/svg">
<path d="M43.385 46.9999H18.0773C16.0888 46.9999 14.4619 45.373 14.4619 43.3845V36.1537H18.0773V43.3845H43.385V18.0768H36.1542V14.4614H43.385C45.3734 14.4614 47.0004 16.0883 47.0004 18.0768V43.3845C47.0004 45.373 45.3734 46.9999 43.385 46.9999Z" fill="#00A59B"/>
<path d="M14.4619 28.923H32.5388V32.5383H14.4619V28.923ZM14.4619 21.6922H32.5388V25.3076H14.4619V21.6922ZM14.4619 14.4614H32.5388V18.0768H14.4619V14.4614Z" fill="#00A59B"/>
<path d="M3.61538 0H28.9231C30.9115 0 32.5385 1.62692 32.5385 3.61538V10.8462H28.9231V3.61538H3.61538V28.9231H10.8462V32.5385H3.61538C1.62692 32.5385 0 30.9115 0 28.9231V3.61538C0 1.62692 1.62692 0 3.61538 0Z" fill="#00A59B"/>
</svg>
