<svg width="25" height="24" viewBox="0 0 25 24" fill="none" xmlns="http://www.w3.org/2000/svg">
<path d="M13.2467 0.466068C13.1777 0.32612 13.0713 0.208332 12.9394 0.125983C12.8074 0.0436343 12.6553 0 12.5 0C12.3447 0 12.1926 0.0436343 12.0606 0.125983C11.9287 0.208332 11.8223 0.32612 11.7533 0.466068L8.34175 7.4192L0.713561 8.53418C0.559648 8.55667 0.415061 8.62204 0.296157 8.72289C0.177253 8.82375 0.088779 8.95607 0.0407428 9.10489C-0.00729345 9.2537 -0.0129743 9.41307 0.024343 9.56496C0.0616603 9.71686 0.140486 9.85521 0.251903 9.96438L5.7718 15.3767L4.46849 23.0206C4.44234 23.1746 4.45952 23.333 4.51809 23.4777C4.57666 23.6225 4.67429 23.7479 4.79995 23.8398C4.92561 23.9317 5.07431 23.9864 5.22925 23.9978C5.38419 24.0092 5.5392 23.9767 5.6768 23.9042L12.5 20.2943L19.3232 23.9042C19.4608 23.9767 19.6158 24.0092 19.7708 23.9978C19.9257 23.9864 20.0744 23.9317 20.2001 23.8398C20.3257 23.7479 20.4233 23.6225 20.4819 23.4777C20.5405 23.333 20.5577 23.1746 20.5315 23.0206L19.2282 15.375L24.7481 9.96438C24.8595 9.85521 24.9383 9.71686 24.9757 9.56496C25.013 9.41307 25.0073 9.2537 24.9593 9.10489C24.9112 8.95607 24.8227 8.82375 24.7038 8.72289C24.5849 8.62204 24.4404 8.55667 24.2864 8.53418L16.6583 7.4192L13.2467 0.466068Z" fill="#FFE500"/>
</svg>
