<svg width="34" height="34" viewBox="0 0 34 34" fill="none" xmlns="http://www.w3.org/2000/svg">
<path d="M33.4414 30.7601L27.0213 24.3588C29.0927 21.7199 30.2167 18.4611 30.2125 15.1062C30.2125 12.1185 29.3265 9.19788 27.6666 6.71367C26.0067 4.22946 23.6475 2.29326 20.8872 1.1499C18.1269 0.00654525 15.0895 -0.292609 12.1592 0.290269C9.22884 0.873147 6.53717 2.31188 4.42452 4.42452C2.31188 6.53717 0.873147 9.22884 0.290269 12.1592C-0.292609 15.0895 0.00654525 18.1269 1.1499 20.8872C2.29326 23.6475 4.22946 26.0067 6.71367 27.6666C9.19788 29.3265 12.1185 30.2125 15.1062 30.2125C18.4611 30.2167 21.7199 29.0927 24.3588 27.0213L30.7601 33.4414C30.9356 33.6184 31.1445 33.7589 31.3746 33.8548C31.6047 33.9506 31.8515 34 32.1008 34C32.35 34 32.5969 33.9506 32.827 33.8548C33.0571 33.7589 33.2659 33.6184 33.4414 33.4414C33.6184 33.2659 33.7589 33.0571 33.8548 32.827C33.9506 32.5969 34 32.35 34 32.1008C34 31.8515 33.9506 31.6047 33.8548 31.3746C33.7589 31.1445 33.6184 30.9356 33.4414 30.7601ZM3.77657 15.1062C3.77657 12.8654 4.44104 10.675 5.68596 8.81182C6.93088 6.94866 8.70034 5.4965 10.7706 4.63899C12.8408 3.78147 15.1188 3.55711 17.3166 3.99426C19.5143 4.43142 21.5331 5.51047 23.1175 7.09495C24.702 8.67944 25.7811 10.6982 26.2182 12.8959C26.6554 15.0937 26.431 17.3717 25.5735 19.4419C24.716 21.5122 23.2638 23.2816 21.4007 24.5265C19.5375 25.7715 17.347 26.4359 15.1062 26.4359C12.1014 26.4359 9.21968 25.2423 7.09495 23.1175C4.97023 20.9928 3.77657 18.1111 3.77657 15.1062Z" fill="white"/>
</svg>
