<svg width="33" height="34" viewBox="0 0 33 34" fill="none" xmlns="http://www.w3.org/2000/svg">
<path d="M15.3214 25.687V4.67986L9.82929 10.3384L8.16043 8.59229L16.5 0L24.8396 8.59229L23.1731 10.3409L17.6786 4.67986V25.687H15.3214ZM3.80679 34C2.7225 34 1.81736 33.626 1.09136 32.878C0.363785 32.1284 0 31.195 0 30.0779V24.1934H2.35714V30.0779C2.35714 30.4502 2.508 30.7927 2.80971 31.1051C3.113 31.416 3.44536 31.5714 3.80679 31.5714H29.1932C29.5546 31.5714 29.887 31.416 30.1903 31.1051C30.492 30.7927 30.6429 30.4502 30.6429 30.0779V24.1934H33V30.0779C33 31.195 32.637 32.1276 31.911 32.8756C31.1834 33.6252 30.2775 34 29.1932 34H3.80679Z" fill="#00A59B"/>
</svg>
