<svg width="36" height="31" viewBox="0 0 36 31" fill="none" xmlns="http://www.w3.org/2000/svg">
<path d="M29.8483 31L27.7215 23.5545C27.6613 23.3446 27.6645 23.1217 27.7307 22.9137C27.7969 22.7056 27.9231 22.5218 28.0935 22.3853L33.0745 18.4007L31.5754 12.4011L28.5441 16.192C28.44 16.3215 28.3082 16.4261 28.1584 16.498C28.0085 16.5698 27.8445 16.6071 27.6783 16.6071H22.1426V14.3929H27.1469L31.2433 9.27232C31.3723 9.11154 31.5437 8.98997 31.738 8.92131C31.9324 8.85265 32.1421 8.83962 32.3435 8.88369C32.5449 8.92777 32.73 9.02719 32.8779 9.17077C33.0258 9.31435 33.1307 9.49638 33.1808 9.69636L35.3951 18.5535C35.4467 18.7589 35.4383 18.9749 35.3708 19.1757C35.3032 19.3764 35.1795 19.5536 35.0142 19.6861L30.0542 23.6541L31.9784 30.3922L29.8483 31ZM25.464 3.875C25.464 3.1086 25.6913 2.35941 26.1171 1.72217C26.5429 1.08493 27.148 0.588258 27.8561 0.294969C28.5642 0.00167897 29.3433 -0.0750589 30.095 0.0744588C30.8467 0.223976 31.5371 0.593035 32.079 1.13496C32.621 1.67689 32.99 2.36735 33.1395 3.11903C33.2891 3.8707 33.2123 4.64984 32.919 5.3579C32.6257 6.06596 32.1291 6.67116 31.4918 7.09695C30.8546 7.52274 30.1054 7.75 29.339 7.75C28.3117 7.74883 27.3267 7.34019 26.6003 6.61375C25.8738 5.8873 25.4652 4.90236 25.464 3.875ZM27.6783 3.875C27.6783 4.20346 27.7757 4.52454 27.9582 4.79765C28.1407 5.07075 28.4 5.28361 28.7035 5.4093C29.0069 5.535 29.3408 5.56788 29.663 5.50381C29.9851 5.43973 30.2811 5.28156 30.5133 5.0493C30.7456 4.81705 30.9037 4.52114 30.9678 4.19899C31.0319 3.87684 30.999 3.54293 30.8733 3.23947C30.7476 2.93602 30.5348 2.67665 30.2616 2.49417C29.9885 2.31169 29.6675 2.21429 29.339 2.21429C28.8987 2.21487 28.4767 2.39003 28.1654 2.70135C27.854 3.01266 27.6789 3.43473 27.6783 3.875Z" fill="#00A59B"/>
<path d="M22.1462 18.8207C21.5577 18.8207 20.9934 18.587 20.5773 18.1709C20.1612 17.7548 19.9275 17.1905 19.9275 16.602V14.3966C19.9275 13.8081 20.1612 13.2438 20.5773 12.8277C20.9934 12.4116 21.5577 12.1779 22.1462 12.1779H24.356V8.85645H11.0703V12.1779H13.2802C13.8686 12.1779 14.4329 12.4116 14.849 12.8277C15.2651 13.2438 15.4989 13.8081 15.4989 14.3966V16.602C15.4989 17.1905 15.2651 17.7548 14.849 18.1709C14.4329 18.587 13.8686 18.8207 13.2802 18.8207H11.0703V22.1422H24.356V18.8207H22.1462Z" fill="#00A59B"/>
<path d="M5.57905 31L7.70698 23.5545C7.76687 23.3445 7.76341 23.1215 7.69703 22.9135C7.63065 22.7055 7.50431 22.5218 7.33387 22.3853L2.35283 18.4007L3.85301 12.4022L6.88437 16.192C6.9883 16.3214 7.11993 16.4259 7.26957 16.4977C7.41921 16.5696 7.58305 16.607 7.74905 16.6071H13.2848V14.3929H8.28048L4.18516 9.27232C4.05613 9.11154 3.88479 8.98997 3.6904 8.92131C3.49602 8.85265 3.28633 8.83962 3.08495 8.88369C2.88357 8.92777 2.69849 9.02719 2.55056 9.17077C2.40263 9.31435 2.29772 9.49638 2.24766 9.69636L0.0333706 18.5535C-0.0182704 18.7589 -0.00983142 18.9749 0.0576841 19.1757C0.1252 19.3764 0.248952 19.5536 0.414228 19.6861L5.37423 23.6541L3.44891 30.3922L5.57905 31ZM6.08833 7.75C5.32193 7.75 4.57274 7.52274 3.9355 7.09695C3.29826 6.67116 2.80159 6.06596 2.5083 5.3579C2.21501 4.64984 2.13827 3.8707 2.28779 3.11903C2.43731 2.36735 2.80637 1.67689 3.3483 1.13496C3.89022 0.593035 4.58068 0.223976 5.33236 0.0744588C6.08404 -0.0750589 6.86317 0.00167897 7.57123 0.294969C8.2793 0.588258 8.88449 1.08493 9.31028 1.72217C9.73607 2.35941 9.96333 3.1086 9.96333 3.875C9.96216 4.90236 9.55353 5.8873 8.82708 6.61375C8.10063 7.34019 7.11569 7.74883 6.08833 7.75ZM6.08833 2.21429C5.75988 2.21429 5.43879 2.31169 5.16569 2.49417C4.89259 2.67665 4.67973 2.93602 4.55403 3.23947C4.42834 3.54293 4.39545 3.87684 4.45953 4.19899C4.52361 4.52114 4.68178 4.81705 4.91403 5.0493C5.14629 5.28156 5.4422 5.43973 5.76434 5.50381C6.08649 5.56788 6.42041 5.535 6.72386 5.4093C7.02732 5.28361 7.28669 5.07075 7.46917 4.79765C7.65165 4.52454 7.74905 4.20346 7.74905 3.875C7.74846 3.43473 7.57331 3.01266 7.26199 2.70135C6.95067 2.39003 6.5286 2.21487 6.08833 2.21429Z" fill="#00A59B"/>
</svg>
