<svg width="21" height="23" viewBox="0 0 21 23" fill="none" xmlns="http://www.w3.org/2000/svg">
<path fill-rule="evenodd" clip-rule="evenodd" d="M7.125 4.3125V2.15625H13.875V4.3125H7.125ZM4.875 4.3125V1.4375C4.875 1.05625 5.03304 0.690618 5.31434 0.421034C5.59564 0.15145 5.97718 0 6.375 0L14.625 0C15.0228 0 15.4044 0.15145 15.6857 0.421034C15.967 0.690618 16.125 1.05625 16.125 1.4375V4.3125H19.875C20.1734 4.3125 20.4595 4.42609 20.6705 4.62828C20.8815 4.83046 21 5.10469 21 5.39062C21 5.67656 20.8815 5.95079 20.6705 6.15297C20.4595 6.35516 20.1734 6.46875 19.875 6.46875H19.3275L18.213 20.3449C18.1552 21.0672 17.815 21.7419 17.2604 22.2342C16.7059 22.7264 15.9779 23 15.222 23H5.778C5.02211 23 4.29411 22.7264 3.73957 22.2342C3.18502 21.7419 2.84483 21.0672 2.787 20.3449L1.6725 6.46875H1.125C0.826631 6.46875 0.540483 6.35516 0.329505 6.15297C0.118526 5.95079 0 5.67656 0 5.39062C0 5.10469 0.118526 4.83046 0.329505 4.62828C0.540483 4.42609 0.826631 4.3125 1.125 4.3125H4.875ZM3.93 6.46875H17.07L15.969 20.1796C15.9546 20.3601 15.8697 20.5288 15.7313 20.6519C15.5928 20.775 15.4109 20.8435 15.222 20.8438H5.778C5.5891 20.8435 5.40723 20.775 5.26875 20.6519C5.13026 20.5288 5.04536 20.3601 5.031 20.1796L3.93 6.46875Z" fill="#F0FAF9"/>
</svg>
